<svg xmlns="http://www.w3.org/2000/svg" viewBox="0 0 512 512" role="img" aria-labelledby="title desc">
  <title id="title">py-tigger sticker</title>
  <desc id="desc">OmicVerse repository hex sticker for py-tigger.</desc>
  <defs>
    <linearGradient id="bg" x1="112" y1="90" x2="398" y2="430" gradientUnits="userSpaceOnUse">
      <stop offset="0" stop-color="#050706"/>
      <stop offset=".58" stop-color="#020403"/>
      <stop offset="1" stop-color="#000000"/>
    </linearGradient>
  </defs>
  <polygon points="256,34 450,146 450,368 256,480 62,368 62,146" fill="#000000" opacity=".34"/>
  <polygon points="256,22 458,139 458,373 256,490 54,373 54,139" fill="url(#bg)" stroke="#0B0F0A" stroke-width="19" stroke-linejoin="round"/>
  <polygon points="256,22 458,139 458,373 256,490 54,373 54,139" fill="none" stroke="#E8FFE0" stroke-width="12" stroke-linejoin="round"/>
  <g opacity=".22" stroke="#3FD36B" stroke-width="2.2">
    <path d="M112 166h288M100 222h312M100 278h312M112 334h288"/>
    <path d="M152 126v236M204 104v274M256 96v286M308 104v274M360 126v236"/>
  </g>
  
  <g id="motif">
    <path d="M150 301h221M164 301V166" stroke="#FFFFFF" stroke-width="7" stroke-linecap="round"/>
    <path d="M181 270l33-58 36 28 42-72 53 103" fill="none" stroke="#FFD60A" stroke-width="9" stroke-linecap="round" stroke-linejoin="round"/>
    <path d="M183 171h38M183 198h56M183 225h31" stroke="#00C7BE" stroke-width="7" stroke-linecap="round"/>
    <path d="M306 174h44M316 202h34M294 230h56" stroke="#30D158" stroke-width="7" stroke-linecap="round"/>
    <circle cx="292" cy="168" r="13" fill="#FF6961" stroke="#FFFFFF" stroke-width="4"/>
  </g>
  <path id="label" d="M306.10,385.09 L309.83,391.55 L305.90,393.82 L296.09,376.83 L300.02,374.56 L301.06,376.36 Q301.25,374.81 301.95,373.73 Q302.64,372.65 303.93,371.90 Q306.21,370.59 308.71,371.56 Q311.22,372.52 312.86,375.37 Q314.50,378.21 314.09,380.87 Q313.67,383.52 311.39,384.83 Q310.11,385.58 308.82,385.64 Q307.54,385.70 306.10,385.09 Z M304.12,375.61 Q302.85,376.34 302.71,377.66 Q302.57,378.98 303.58,380.72 Q304.59,382.47 305.80,383.01 Q307.02,383.55 308.28,382.82 Q309.54,382.09 309.68,380.78 Q309.81,379.47 308.79,377.71 Q307.78,375.95 306.58,375.42 Q305.38,374.88 304.12,375.61 Z M310.58,368.46 L314.52,366.18 L322.66,372.63 L320.65,362.65 L324.58,360.38 L327.18,376.84 Q327.59,379.35 327.02,380.77 Q326.46,382.19 324.76,383.17 L322.48,384.49 L320.99,381.90 L322.22,381.19 Q323.22,380.61 323.49,380.03 Q323.76,379.45 323.54,378.48 L323.45,378.07 L310.58,368.46 Z M328.65,363.67 L335.56,359.68 L337.40,362.88 L330.50,366.87 L328.65,363.67 Z M338.50,347.67 L340.52,351.17 L344.58,348.83 L346.21,351.64 L342.15,353.99 L345.16,359.21 Q345.66,360.07 346.17,360.17 Q346.69,360.28 347.70,359.69 L349.73,358.52 L351.35,361.34 L347.97,363.29 Q345.64,364.63 344.11,364.23 Q342.57,363.81 341.23,361.48 L338.21,356.26 L336.25,357.39 L334.63,354.57 L336.59,353.44 L334.57,349.95 L338.50,347.67 Z M346.99,347.44 L350.92,345.17 L358.03,357.48 L354.10,359.75 L346.99,347.44 Z M344.22,342.64 L348.15,340.37 L350.01,343.58 L346.08,345.85 L344.22,342.64 Z M368.99,348.37 Q368.80,349.92 368.11,350.99 Q367.42,352.06 366.14,352.80 Q363.88,354.10 361.38,353.18 Q358.89,352.25 357.30,349.50 Q355.71,346.74 356.16,344.13 Q356.61,341.52 358.87,340.21 Q360.15,339.47 361.42,339.41 Q362.70,339.35 364.14,339.97 L363.08,338.15 L367.04,335.86 L373.44,346.93 Q375.15,349.90 374.18,352.55 Q373.21,355.20 369.65,357.25 Q368.49,357.92 367.31,358.37 Q366.13,358.81 364.84,359.08 L363.07,356.01 Q364.44,356.01 365.60,355.73 Q366.76,355.45 367.76,354.87 Q369.69,353.76 370.10,352.39 Q370.52,351.02 369.48,349.22 L368.99,348.37 Z M361.97,342.21 Q360.75,342.91 360.59,344.21 Q360.43,345.50 361.38,347.15 Q362.36,348.84 363.52,349.34 Q364.68,349.83 365.95,349.10 Q367.18,348.39 367.34,347.09 Q367.50,345.80 366.56,344.16 Q365.61,342.51 364.40,342.00 Q363.20,341.49 361.97,342.21 Z M385.11,339.06 Q384.91,340.61 384.23,341.68 Q383.54,342.75 382.26,343.50 Q380.00,344.80 377.50,343.88 Q375.01,342.95 373.42,340.20 Q371.83,337.44 372.28,334.83 Q372.73,332.21 374.99,330.91 Q376.27,330.17 377.54,330.11 Q378.81,330.04 380.26,330.67 L379.20,328.84 L383.16,326.55 L389.55,337.63 Q391.27,340.60 390.30,343.24 Q389.32,345.89 385.76,347.95 Q384.61,348.61 383.43,349.06 Q382.25,349.51 380.95,349.77 L379.18,346.70 Q380.56,346.70 381.71,346.43 Q382.88,346.14 383.87,345.57 Q385.81,344.45 386.22,343.08 Q386.64,341.71 385.60,339.91 L385.11,339.06 Z M378.09,332.90 Q376.86,333.60 376.70,334.90 Q376.54,336.20 377.50,337.84 Q378.47,339.54 379.64,340.03 Q380.80,340.52 382.06,339.79 Q383.30,339.08 383.46,337.79 Q383.62,336.49 382.67,334.85 Q381.72,333.21 380.52,332.70 Q379.32,332.19 378.09,332.90 Z M402.77,323.40 L403.42,324.52 L394.22,329.83 Q395.16,331.14 396.41,331.33 Q397.67,331.53 399.21,330.64 Q400.45,329.93 401.54,328.81 Q402.63,327.68 403.58,326.14 L405.33,329.17 Q404.24,330.51 403.00,331.59 Q401.76,332.66 400.36,333.47 Q397.02,335.40 394.18,334.77 Q391.35,334.14 389.58,331.07 Q387.84,328.06 388.66,325.29 Q389.49,322.51 392.68,320.67 Q395.58,318.99 398.33,319.73 Q401.08,320.47 402.77,323.40 Z M397.97,324.43 Q397.32,323.31 396.27,323.00 Q395.22,322.69 394.16,323.29 Q393.02,323.95 392.68,325.01 Q392.33,326.07 392.86,327.38 L397.97,324.43 Z M413.30,313.63 Q412.64,313.68 412.06,313.87 Q411.49,314.04 410.97,314.34 Q409.45,315.22 409.19,316.67 Q408.94,318.11 409.98,319.92 L413.26,325.60 L409.32,327.87 L402.22,315.55 L406.15,313.28 L407.32,315.31 Q407.38,313.66 408.04,312.54 Q408.70,311.41 410.08,310.62 Q410.28,310.50 410.52,310.39 Q410.76,310.27 411.23,310.07 L413.30,313.63 Z" fill="#FFFFFF"/>
</svg>
